<svg width="1200" height="800" viewBox="0 0 1200 800" fill="none" xmlns="http://www.w3.org/2000/svg">
  <rect width="1200" height="800" rx="48" fill="#F3E7D4"/>
  <rect x="60" y="60" width="1080" height="680" rx="40" fill="url(#a)"/>
  <circle cx="900" cy="190" r="120" fill="#E5C98F" fill-opacity=".35"/>
  <circle cx="230" cy="610" r="150" fill="#F7E7C4" fill-opacity=".45"/>
  <path d="M285 545C330 462 398 392 478 366C538 347 584 309 602 255C620 210 659 170 722 168C783 166 846 219 870 286C894 352 882 427 840 482C798 538 734 572 659 575C584 578 536 566 488 590C440 614 378 666 321 644C266 623 255 600 285 545Z" fill="#F8F3EA"/>
  <text x="120" y="180" fill="#F4E6C4" font-size="38" font-family="Arial, sans-serif" letter-spacing="4">FORMATION BIEN-ETRE</text>
  <text x="120" y="270" fill="white" font-size="76" font-weight="700" font-family="Arial, sans-serif">Reflexologie</text>
  <text x="120" y="340" fill="#E7C98E" font-size="42" font-family="Arial, sans-serif">Oreille / pieds / mains</text>
  <text x="120" y="420" fill="#EDE5D7" font-size="28" font-family="Arial, sans-serif">Approche complete et certifiante</text>
  <defs>
    <linearGradient id="a" x1="60" y1="60" x2="1140" y2="740" gradientUnits="userSpaceOnUse">
      <stop stop-color="#173927"/>
      <stop offset="1" stop-color="#31543F"/>
    </linearGradient>
  </defs>
</svg>
