<svg width="1200" height="800" viewBox="0 0 1200 800" fill="none" xmlns="http://www.w3.org/2000/svg">
  <rect width="1200" height="800" rx="48" fill="#F5EBD9"/>
  <rect x="60" y="60" width="1080" height="680" rx="40" fill="url(#a)"/>
  <circle cx="915" cy="180" r="125" fill="#D8B474" fill-opacity=".35"/>
  <circle cx="890" cy="540" r="180" fill="#FFFFFF" fill-opacity=".08"/>
  <path d="M740 238C774 238 802 266 802 300V500C802 534 774 562 740 562C706 562 678 534 678 500V300C678 266 706 238 740 238Z" fill="#F9F5EE"/>
  <path d="M620 300H860" stroke="#E5C98F" stroke-width="28" stroke-linecap="round"/>
  <path d="M620 400H860" stroke="#E5C98F" stroke-width="28" stroke-linecap="round"/>
  <path d="M620 500H860" stroke="#E5C98F" stroke-width="28" stroke-linecap="round"/>
  <text x="120" y="180" fill="#F4E6C4" font-size="38" font-family="Arial, sans-serif" letter-spacing="4">FORMATION THERAPEUTIQUE</text>
  <text x="120" y="270" fill="white" font-size="72" font-weight="700" font-family="Arial, sans-serif">Kinesiologie</text>
  <text x="120" y="340" fill="#E7C98E" font-size="40" font-family="Arial, sans-serif">Muscles et articulations</text>
  <text x="120" y="420" fill="#EDE5D7" font-size="28" font-family="Arial, sans-serif">Lecture musculaire et protocoles de correction</text>
  <defs>
    <linearGradient id="a" x1="60" y1="60" x2="1140" y2="740" gradientUnits="userSpaceOnUse">
      <stop stop-color="#1D3D2B"/>
      <stop offset="1" stop-color="#51604B"/>
    </linearGradient>
  </defs>
</svg>
